<mxfile host="app.diagrams.net" modified="2023-12-03T14:28:06.847Z" agent="Mozilla/5.0 (Windows NT 10.0; Win64; x64) AppleWebKit/537.36 (KHTML, like Gecko) Chrome/119.0.0.0 Safari/537.36 Edg/119.0.0.0" etag="pVLQguR-rc3q0DViqY29" version="22.1.5" type="github">
  <diagram name="Page-1" id="edf60f1a-56cd-e834-aa8a-f176f3a09ee4">
    <mxGraphModel dx="1284" dy="566" grid="1" gridSize="10" guides="1" tooltips="1" connect="1" arrows="1" fold="1" page="1" pageScale="1" pageWidth="1100" pageHeight="850" background="none" math="0" shadow="0">
      <root>
        <mxCell id="0" />
        <mxCell id="1" parent="0" />
        <mxCell id="bFYyRGVqq3uxC3u2RR_p-9" style="edgeStyle=orthogonalEdgeStyle;rounded=0;orthogonalLoop=1;jettySize=auto;html=1;exitX=0.5;exitY=1;exitDx=0;exitDy=0;entryX=0.5;entryY=0;entryDx=0;entryDy=0;" edge="1" parent="1" source="bFYyRGVqq3uxC3u2RR_p-1" target="bFYyRGVqq3uxC3u2RR_p-6">
          <mxGeometry relative="1" as="geometry" />
        </mxCell>
        <mxCell id="bFYyRGVqq3uxC3u2RR_p-1" value="Initialisation" style="ellipse;whiteSpace=wrap;html=1;" vertex="1" parent="1">
          <mxGeometry x="80" y="40" width="120" height="80" as="geometry" />
        </mxCell>
        <mxCell id="bFYyRGVqq3uxC3u2RR_p-18" style="edgeStyle=orthogonalEdgeStyle;rounded=0;orthogonalLoop=1;jettySize=auto;html=1;exitX=0.5;exitY=1;exitDx=0;exitDy=0;entryX=0.5;entryY=0;entryDx=0;entryDy=0;" edge="1" parent="1" source="bFYyRGVqq3uxC3u2RR_p-2" target="bFYyRGVqq3uxC3u2RR_p-16">
          <mxGeometry relative="1" as="geometry" />
        </mxCell>
        <mxCell id="bFYyRGVqq3uxC3u2RR_p-2" value="add isoThreshold&lt;br&gt;to isoBoundaries[]" style="shape=parallelogram;perimeter=parallelogramPerimeter;whiteSpace=wrap;html=1;fixedSize=1;" vertex="1" parent="1">
          <mxGeometry x="67.5" y="440" width="145" height="60" as="geometry" />
        </mxCell>
        <mxCell id="bFYyRGVqq3uxC3u2RR_p-12" style="edgeStyle=orthogonalEdgeStyle;rounded=0;orthogonalLoop=1;jettySize=auto;html=1;exitX=0.5;exitY=1;exitDx=0;exitDy=0;entryX=0.5;entryY=0;entryDx=0;entryDy=0;" edge="1" parent="1" source="bFYyRGVqq3uxC3u2RR_p-4" target="bFYyRGVqq3uxC3u2RR_p-2">
          <mxGeometry relative="1" as="geometry" />
        </mxCell>
        <mxCell id="bFYyRGVqq3uxC3u2RR_p-4" value="isoBoundaries[]" style="shape=parallelogram;perimeter=parallelogramPerimeter;whiteSpace=wrap;html=1;fixedSize=1;" vertex="1" parent="1">
          <mxGeometry x="80" y="330" width="120" height="60" as="geometry" />
        </mxCell>
        <mxCell id="bFYyRGVqq3uxC3u2RR_p-14" style="edgeStyle=orthogonalEdgeStyle;rounded=0;orthogonalLoop=1;jettySize=auto;html=1;exitX=1;exitY=0.5;exitDx=0;exitDy=0;entryX=0.5;entryY=0;entryDx=0;entryDy=0;" edge="1" parent="1" source="bFYyRGVqq3uxC3u2RR_p-5" target="bFYyRGVqq3uxC3u2RR_p-2">
          <mxGeometry relative="1" as="geometry" />
        </mxCell>
        <mxCell id="bFYyRGVqq3uxC3u2RR_p-15" style="edgeStyle=orthogonalEdgeStyle;rounded=0;orthogonalLoop=1;jettySize=auto;html=1;exitX=0.5;exitY=1;exitDx=0;exitDy=0;" edge="1" parent="1" source="bFYyRGVqq3uxC3u2RR_p-5">
          <mxGeometry relative="1" as="geometry">
            <mxPoint x="140" y="920" as="targetPoint" />
          </mxGeometry>
        </mxCell>
        <mxCell id="bFYyRGVqq3uxC3u2RR_p-5" value="Is isothreshold &amp;lt; 200" style="rhombus;whiteSpace=wrap;html=1;" vertex="1" parent="1">
          <mxGeometry x="55" y="720" width="170" height="170" as="geometry" />
        </mxCell>
        <mxCell id="bFYyRGVqq3uxC3u2RR_p-10" style="edgeStyle=orthogonalEdgeStyle;rounded=0;orthogonalLoop=1;jettySize=auto;html=1;exitX=0.5;exitY=1;exitDx=0;exitDy=0;entryX=0.5;entryY=0;entryDx=0;entryDy=0;" edge="1" parent="1" source="bFYyRGVqq3uxC3u2RR_p-6" target="bFYyRGVqq3uxC3u2RR_p-7">
          <mxGeometry relative="1" as="geometry" />
        </mxCell>
        <mxCell id="bFYyRGVqq3uxC3u2RR_p-6" value="X = 0" style="rounded=0;whiteSpace=wrap;html=1;" vertex="1" parent="1">
          <mxGeometry x="80" y="150" width="120" height="60" as="geometry" />
        </mxCell>
        <mxCell id="bFYyRGVqq3uxC3u2RR_p-11" style="edgeStyle=orthogonalEdgeStyle;rounded=0;orthogonalLoop=1;jettySize=auto;html=1;exitX=0.5;exitY=1;exitDx=0;exitDy=0;entryX=0.5;entryY=0;entryDx=0;entryDy=0;" edge="1" parent="1" source="bFYyRGVqq3uxC3u2RR_p-7" target="bFYyRGVqq3uxC3u2RR_p-4">
          <mxGeometry relative="1" as="geometry" />
        </mxCell>
        <mxCell id="bFYyRGVqq3uxC3u2RR_p-7" value="isoThreshold = 11" style="rounded=0;whiteSpace=wrap;html=1;" vertex="1" parent="1">
          <mxGeometry x="80" y="240" width="120" height="60" as="geometry" />
        </mxCell>
        <mxCell id="bFYyRGVqq3uxC3u2RR_p-19" style="edgeStyle=orthogonalEdgeStyle;rounded=0;orthogonalLoop=1;jettySize=auto;html=1;exitX=0.5;exitY=1;exitDx=0;exitDy=0;entryX=0.5;entryY=0;entryDx=0;entryDy=0;" edge="1" parent="1" source="bFYyRGVqq3uxC3u2RR_p-16" target="bFYyRGVqq3uxC3u2RR_p-17">
          <mxGeometry relative="1" as="geometry" />
        </mxCell>
        <mxCell id="bFYyRGVqq3uxC3u2RR_p-16" value="isoThreshold +=&lt;br&gt;isoThreshold" style="rounded=0;whiteSpace=wrap;html=1;" vertex="1" parent="1">
          <mxGeometry x="80" y="530" width="120" height="60" as="geometry" />
        </mxCell>
        <mxCell id="bFYyRGVqq3uxC3u2RR_p-20" style="edgeStyle=orthogonalEdgeStyle;rounded=0;orthogonalLoop=1;jettySize=auto;html=1;exitX=0.5;exitY=1;exitDx=0;exitDy=0;entryX=0.5;entryY=0;entryDx=0;entryDy=0;" edge="1" parent="1" source="bFYyRGVqq3uxC3u2RR_p-17" target="bFYyRGVqq3uxC3u2RR_p-5">
          <mxGeometry relative="1" as="geometry" />
        </mxCell>
        <mxCell id="bFYyRGVqq3uxC3u2RR_p-17" value="X += 1" style="rounded=0;whiteSpace=wrap;html=1;" vertex="1" parent="1">
          <mxGeometry x="80" y="630" width="120" height="60" as="geometry" />
        </mxCell>
        <mxCell id="bFYyRGVqq3uxC3u2RR_p-21" value="End" style="ellipse;whiteSpace=wrap;html=1;" vertex="1" parent="1">
          <mxGeometry x="80" y="920" width="120" height="80" as="geometry" />
        </mxCell>
        <mxCell id="bFYyRGVqq3uxC3u2RR_p-28" style="edgeStyle=orthogonalEdgeStyle;rounded=0;orthogonalLoop=1;jettySize=auto;html=1;exitX=0.5;exitY=1;exitDx=0;exitDy=0;entryX=0.5;entryY=0;entryDx=0;entryDy=0;" edge="1" parent="1" source="bFYyRGVqq3uxC3u2RR_p-22" target="bFYyRGVqq3uxC3u2RR_p-23">
          <mxGeometry relative="1" as="geometry" />
        </mxCell>
        <mxCell id="bFYyRGVqq3uxC3u2RR_p-22" value="Assign Binary Value" style="ellipse;whiteSpace=wrap;html=1;" vertex="1" parent="1">
          <mxGeometry x="390" y="40" width="120" height="80" as="geometry" />
        </mxCell>
        <mxCell id="bFYyRGVqq3uxC3u2RR_p-26" style="edgeStyle=orthogonalEdgeStyle;rounded=0;orthogonalLoop=1;jettySize=auto;html=1;exitX=1;exitY=0.5;exitDx=0;exitDy=0;entryX=0.5;entryY=0;entryDx=0;entryDy=0;" edge="1" parent="1" source="bFYyRGVqq3uxC3u2RR_p-23" target="bFYyRGVqq3uxC3u2RR_p-25">
          <mxGeometry relative="1" as="geometry" />
        </mxCell>
        <mxCell id="bFYyRGVqq3uxC3u2RR_p-27" style="edgeStyle=orthogonalEdgeStyle;rounded=0;orthogonalLoop=1;jettySize=auto;html=1;exitX=0.5;exitY=1;exitDx=0;exitDy=0;entryX=0.5;entryY=0;entryDx=0;entryDy=0;" edge="1" parent="1" source="bFYyRGVqq3uxC3u2RR_p-23" target="bFYyRGVqq3uxC3u2RR_p-24">
          <mxGeometry relative="1" as="geometry" />
        </mxCell>
        <mxCell id="bFYyRGVqq3uxC3u2RR_p-23" value="is dataPoint[x][y]&lt;br&gt;&amp;lt;= isoThreshold" style="rhombus;whiteSpace=wrap;html=1;" vertex="1" parent="1">
          <mxGeometry x="375" y="150" width="150" height="150" as="geometry" />
        </mxCell>
        <mxCell id="bFYyRGVqq3uxC3u2RR_p-30" style="edgeStyle=orthogonalEdgeStyle;rounded=0;orthogonalLoop=1;jettySize=auto;html=1;exitX=0.5;exitY=1;exitDx=0;exitDy=0;entryX=0.5;entryY=0;entryDx=0;entryDy=0;" edge="1" parent="1" source="bFYyRGVqq3uxC3u2RR_p-24" target="bFYyRGVqq3uxC3u2RR_p-29">
          <mxGeometry relative="1" as="geometry" />
        </mxCell>
        <mxCell id="bFYyRGVqq3uxC3u2RR_p-24" value="binaryValue[x][y] = 1" style="rounded=0;whiteSpace=wrap;html=1;" vertex="1" parent="1">
          <mxGeometry x="390" y="330" width="120" height="60" as="geometry" />
        </mxCell>
        <mxCell id="bFYyRGVqq3uxC3u2RR_p-31" style="edgeStyle=orthogonalEdgeStyle;rounded=0;orthogonalLoop=1;jettySize=auto;html=1;exitX=0.5;exitY=1;exitDx=0;exitDy=0;entryX=0.5;entryY=0;entryDx=0;entryDy=0;" edge="1" parent="1" source="bFYyRGVqq3uxC3u2RR_p-25" target="bFYyRGVqq3uxC3u2RR_p-29">
          <mxGeometry relative="1" as="geometry" />
        </mxCell>
        <mxCell id="bFYyRGVqq3uxC3u2RR_p-25" value="binaryValue[x][y] = 0" style="rounded=0;whiteSpace=wrap;html=1;" vertex="1" parent="1">
          <mxGeometry x="590" y="330" width="120" height="60" as="geometry" />
        </mxCell>
        <mxCell id="bFYyRGVqq3uxC3u2RR_p-29" value="end" style="ellipse;whiteSpace=wrap;html=1;" vertex="1" parent="1">
          <mxGeometry x="390" y="430" width="120" height="80" as="geometry" />
        </mxCell>
        <mxCell id="bFYyRGVqq3uxC3u2RR_p-69" style="edgeStyle=orthogonalEdgeStyle;rounded=0;orthogonalLoop=1;jettySize=auto;html=1;exitX=0.5;exitY=1;exitDx=0;exitDy=0;entryX=0.5;entryY=0;entryDx=0;entryDy=0;" edge="1" parent="1" source="bFYyRGVqq3uxC3u2RR_p-32" target="bFYyRGVqq3uxC3u2RR_p-34">
          <mxGeometry relative="1" as="geometry" />
        </mxCell>
        <mxCell id="bFYyRGVqq3uxC3u2RR_p-32" value="Decision Matrix" style="ellipse;whiteSpace=wrap;html=1;" vertex="1" parent="1">
          <mxGeometry x="820" y="30" width="120" height="80" as="geometry" />
        </mxCell>
        <mxCell id="bFYyRGVqq3uxC3u2RR_p-70" style="edgeStyle=orthogonalEdgeStyle;rounded=0;orthogonalLoop=1;jettySize=auto;html=1;exitX=1;exitY=0.5;exitDx=0;exitDy=0;entryX=0;entryY=0.5;entryDx=0;entryDy=0;" edge="1" parent="1" source="bFYyRGVqq3uxC3u2RR_p-34" target="bFYyRGVqq3uxC3u2RR_p-35">
          <mxGeometry relative="1" as="geometry" />
        </mxCell>
        <mxCell id="bFYyRGVqq3uxC3u2RR_p-85" style="edgeStyle=orthogonalEdgeStyle;rounded=0;orthogonalLoop=1;jettySize=auto;html=1;exitX=0.5;exitY=1;exitDx=0;exitDy=0;entryX=0.5;entryY=0;entryDx=0;entryDy=0;" edge="1" parent="1" source="bFYyRGVqq3uxC3u2RR_p-34" target="bFYyRGVqq3uxC3u2RR_p-52">
          <mxGeometry relative="1" as="geometry" />
        </mxCell>
        <mxCell id="bFYyRGVqq3uxC3u2RR_p-34" value="value = 0" style="rhombus;whiteSpace=wrap;html=1;" vertex="1" parent="1">
          <mxGeometry x="840" y="150" width="80" height="80" as="geometry" />
        </mxCell>
        <mxCell id="bFYyRGVqq3uxC3u2RR_p-71" style="edgeStyle=orthogonalEdgeStyle;rounded=0;orthogonalLoop=1;jettySize=auto;html=1;exitX=1;exitY=0.5;exitDx=0;exitDy=0;entryX=0;entryY=0.5;entryDx=0;entryDy=0;" edge="1" parent="1" source="bFYyRGVqq3uxC3u2RR_p-35" target="bFYyRGVqq3uxC3u2RR_p-36">
          <mxGeometry relative="1" as="geometry" />
        </mxCell>
        <mxCell id="bFYyRGVqq3uxC3u2RR_p-86" style="edgeStyle=orthogonalEdgeStyle;rounded=0;orthogonalLoop=1;jettySize=auto;html=1;exitX=0.5;exitY=1;exitDx=0;exitDy=0;entryX=0.5;entryY=0;entryDx=0;entryDy=0;" edge="1" parent="1" source="bFYyRGVqq3uxC3u2RR_p-35" target="bFYyRGVqq3uxC3u2RR_p-54">
          <mxGeometry relative="1" as="geometry" />
        </mxCell>
        <mxCell id="bFYyRGVqq3uxC3u2RR_p-35" value="value = 1" style="rhombus;whiteSpace=wrap;html=1;" vertex="1" parent="1">
          <mxGeometry x="950" y="150" width="80" height="80" as="geometry" />
        </mxCell>
        <mxCell id="bFYyRGVqq3uxC3u2RR_p-72" style="edgeStyle=orthogonalEdgeStyle;rounded=0;orthogonalLoop=1;jettySize=auto;html=1;exitX=1;exitY=0.5;exitDx=0;exitDy=0;entryX=0;entryY=0.5;entryDx=0;entryDy=0;" edge="1" parent="1" source="bFYyRGVqq3uxC3u2RR_p-36" target="bFYyRGVqq3uxC3u2RR_p-37">
          <mxGeometry relative="1" as="geometry" />
        </mxCell>
        <mxCell id="bFYyRGVqq3uxC3u2RR_p-87" style="edgeStyle=orthogonalEdgeStyle;rounded=0;orthogonalLoop=1;jettySize=auto;html=1;exitX=0.5;exitY=1;exitDx=0;exitDy=0;entryX=0.5;entryY=0;entryDx=0;entryDy=0;" edge="1" parent="1" source="bFYyRGVqq3uxC3u2RR_p-36" target="bFYyRGVqq3uxC3u2RR_p-55">
          <mxGeometry relative="1" as="geometry" />
        </mxCell>
        <mxCell id="bFYyRGVqq3uxC3u2RR_p-36" value="value = 2" style="rhombus;whiteSpace=wrap;html=1;" vertex="1" parent="1">
          <mxGeometry x="1060" y="150" width="80" height="80" as="geometry" />
        </mxCell>
        <mxCell id="bFYyRGVqq3uxC3u2RR_p-73" style="edgeStyle=orthogonalEdgeStyle;rounded=0;orthogonalLoop=1;jettySize=auto;html=1;exitX=1;exitY=0.5;exitDx=0;exitDy=0;entryX=1;entryY=0.5;entryDx=0;entryDy=0;" edge="1" parent="1" source="bFYyRGVqq3uxC3u2RR_p-37" target="bFYyRGVqq3uxC3u2RR_p-41">
          <mxGeometry relative="1" as="geometry" />
        </mxCell>
        <mxCell id="bFYyRGVqq3uxC3u2RR_p-88" style="edgeStyle=orthogonalEdgeStyle;rounded=0;orthogonalLoop=1;jettySize=auto;html=1;exitX=0.5;exitY=1;exitDx=0;exitDy=0;entryX=0.5;entryY=0;entryDx=0;entryDy=0;" edge="1" parent="1" source="bFYyRGVqq3uxC3u2RR_p-37" target="bFYyRGVqq3uxC3u2RR_p-56">
          <mxGeometry relative="1" as="geometry" />
        </mxCell>
        <mxCell id="bFYyRGVqq3uxC3u2RR_p-37" value="value = 3" style="rhombus;whiteSpace=wrap;html=1;" vertex="1" parent="1">
          <mxGeometry x="1170" y="150" width="80" height="80" as="geometry" />
        </mxCell>
        <mxCell id="bFYyRGVqq3uxC3u2RR_p-77" style="edgeStyle=orthogonalEdgeStyle;rounded=0;orthogonalLoop=1;jettySize=auto;html=1;exitX=0;exitY=0.5;exitDx=0;exitDy=0;entryX=0;entryY=0.5;entryDx=0;entryDy=0;" edge="1" parent="1" source="bFYyRGVqq3uxC3u2RR_p-38" target="bFYyRGVqq3uxC3u2RR_p-42">
          <mxGeometry relative="1" as="geometry" />
        </mxCell>
        <mxCell id="bFYyRGVqq3uxC3u2RR_p-92" style="edgeStyle=orthogonalEdgeStyle;rounded=0;orthogonalLoop=1;jettySize=auto;html=1;exitX=0.5;exitY=1;exitDx=0;exitDy=0;entryX=0.5;entryY=0;entryDx=0;entryDy=0;" edge="1" parent="1" source="bFYyRGVqq3uxC3u2RR_p-38" target="bFYyRGVqq3uxC3u2RR_p-57">
          <mxGeometry relative="1" as="geometry" />
        </mxCell>
        <mxCell id="bFYyRGVqq3uxC3u2RR_p-38" value="value = 4" style="rhombus;whiteSpace=wrap;html=1;" vertex="1" parent="1">
          <mxGeometry x="840" y="330" width="80" height="80" as="geometry" />
        </mxCell>
        <mxCell id="bFYyRGVqq3uxC3u2RR_p-76" style="edgeStyle=orthogonalEdgeStyle;rounded=0;orthogonalLoop=1;jettySize=auto;html=1;exitX=0;exitY=0.5;exitDx=0;exitDy=0;entryX=1;entryY=0.5;entryDx=0;entryDy=0;" edge="1" parent="1" source="bFYyRGVqq3uxC3u2RR_p-39" target="bFYyRGVqq3uxC3u2RR_p-38">
          <mxGeometry relative="1" as="geometry" />
        </mxCell>
        <mxCell id="bFYyRGVqq3uxC3u2RR_p-91" style="edgeStyle=orthogonalEdgeStyle;rounded=0;orthogonalLoop=1;jettySize=auto;html=1;exitX=0.5;exitY=1;exitDx=0;exitDy=0;entryX=0.5;entryY=0;entryDx=0;entryDy=0;" edge="1" parent="1" source="bFYyRGVqq3uxC3u2RR_p-39" target="bFYyRGVqq3uxC3u2RR_p-58">
          <mxGeometry relative="1" as="geometry" />
        </mxCell>
        <mxCell id="bFYyRGVqq3uxC3u2RR_p-39" value="value = 5" style="rhombus;whiteSpace=wrap;html=1;" vertex="1" parent="1">
          <mxGeometry x="950" y="330" width="80" height="80" as="geometry" />
        </mxCell>
        <mxCell id="bFYyRGVqq3uxC3u2RR_p-75" style="edgeStyle=orthogonalEdgeStyle;rounded=0;orthogonalLoop=1;jettySize=auto;html=1;exitX=0;exitY=0.5;exitDx=0;exitDy=0;entryX=1;entryY=0.5;entryDx=0;entryDy=0;" edge="1" parent="1" source="bFYyRGVqq3uxC3u2RR_p-40" target="bFYyRGVqq3uxC3u2RR_p-39">
          <mxGeometry relative="1" as="geometry" />
        </mxCell>
        <mxCell id="bFYyRGVqq3uxC3u2RR_p-90" style="edgeStyle=orthogonalEdgeStyle;rounded=0;orthogonalLoop=1;jettySize=auto;html=1;exitX=0.5;exitY=1;exitDx=0;exitDy=0;entryX=0.5;entryY=0;entryDx=0;entryDy=0;" edge="1" parent="1" source="bFYyRGVqq3uxC3u2RR_p-40" target="bFYyRGVqq3uxC3u2RR_p-59">
          <mxGeometry relative="1" as="geometry" />
        </mxCell>
        <mxCell id="bFYyRGVqq3uxC3u2RR_p-40" value="value = 6" style="rhombus;whiteSpace=wrap;html=1;" vertex="1" parent="1">
          <mxGeometry x="1060" y="330" width="80" height="80" as="geometry" />
        </mxCell>
        <mxCell id="bFYyRGVqq3uxC3u2RR_p-74" style="edgeStyle=orthogonalEdgeStyle;rounded=0;orthogonalLoop=1;jettySize=auto;html=1;exitX=0;exitY=0.5;exitDx=0;exitDy=0;entryX=1;entryY=0.5;entryDx=0;entryDy=0;" edge="1" parent="1" source="bFYyRGVqq3uxC3u2RR_p-41" target="bFYyRGVqq3uxC3u2RR_p-40">
          <mxGeometry relative="1" as="geometry" />
        </mxCell>
        <mxCell id="bFYyRGVqq3uxC3u2RR_p-89" style="edgeStyle=orthogonalEdgeStyle;rounded=0;orthogonalLoop=1;jettySize=auto;html=1;exitX=0.5;exitY=1;exitDx=0;exitDy=0;entryX=0.5;entryY=0;entryDx=0;entryDy=0;" edge="1" parent="1" source="bFYyRGVqq3uxC3u2RR_p-41" target="bFYyRGVqq3uxC3u2RR_p-60">
          <mxGeometry relative="1" as="geometry" />
        </mxCell>
        <mxCell id="bFYyRGVqq3uxC3u2RR_p-41" value="value = 7" style="rhombus;whiteSpace=wrap;html=1;" vertex="1" parent="1">
          <mxGeometry x="1170" y="330" width="80" height="80" as="geometry" />
        </mxCell>
        <mxCell id="bFYyRGVqq3uxC3u2RR_p-78" style="edgeStyle=orthogonalEdgeStyle;rounded=0;orthogonalLoop=1;jettySize=auto;html=1;exitX=1;exitY=0.5;exitDx=0;exitDy=0;entryX=0;entryY=0.5;entryDx=0;entryDy=0;" edge="1" parent="1" source="bFYyRGVqq3uxC3u2RR_p-42" target="bFYyRGVqq3uxC3u2RR_p-43">
          <mxGeometry relative="1" as="geometry" />
        </mxCell>
        <mxCell id="bFYyRGVqq3uxC3u2RR_p-93" style="edgeStyle=orthogonalEdgeStyle;rounded=0;orthogonalLoop=1;jettySize=auto;html=1;exitX=0.5;exitY=1;exitDx=0;exitDy=0;entryX=0.5;entryY=0;entryDx=0;entryDy=0;" edge="1" parent="1" source="bFYyRGVqq3uxC3u2RR_p-42" target="bFYyRGVqq3uxC3u2RR_p-61">
          <mxGeometry relative="1" as="geometry" />
        </mxCell>
        <mxCell id="bFYyRGVqq3uxC3u2RR_p-42" value="value = 8" style="rhombus;whiteSpace=wrap;html=1;" vertex="1" parent="1">
          <mxGeometry x="840" y="510" width="80" height="80" as="geometry" />
        </mxCell>
        <mxCell id="bFYyRGVqq3uxC3u2RR_p-79" style="edgeStyle=orthogonalEdgeStyle;rounded=0;orthogonalLoop=1;jettySize=auto;html=1;exitX=1;exitY=0.5;exitDx=0;exitDy=0;entryX=0;entryY=0.5;entryDx=0;entryDy=0;" edge="1" parent="1" source="bFYyRGVqq3uxC3u2RR_p-43" target="bFYyRGVqq3uxC3u2RR_p-44">
          <mxGeometry relative="1" as="geometry" />
        </mxCell>
        <mxCell id="bFYyRGVqq3uxC3u2RR_p-94" style="edgeStyle=orthogonalEdgeStyle;rounded=0;orthogonalLoop=1;jettySize=auto;html=1;exitX=0.5;exitY=1;exitDx=0;exitDy=0;entryX=0.5;entryY=0;entryDx=0;entryDy=0;" edge="1" parent="1" source="bFYyRGVqq3uxC3u2RR_p-43" target="bFYyRGVqq3uxC3u2RR_p-62">
          <mxGeometry relative="1" as="geometry" />
        </mxCell>
        <mxCell id="bFYyRGVqq3uxC3u2RR_p-43" value="value = 9" style="rhombus;whiteSpace=wrap;html=1;" vertex="1" parent="1">
          <mxGeometry x="950" y="510" width="80" height="80" as="geometry" />
        </mxCell>
        <mxCell id="bFYyRGVqq3uxC3u2RR_p-80" style="edgeStyle=orthogonalEdgeStyle;rounded=0;orthogonalLoop=1;jettySize=auto;html=1;exitX=1;exitY=0.5;exitDx=0;exitDy=0;entryX=0;entryY=0.5;entryDx=0;entryDy=0;" edge="1" parent="1" source="bFYyRGVqq3uxC3u2RR_p-44" target="bFYyRGVqq3uxC3u2RR_p-45">
          <mxGeometry relative="1" as="geometry" />
        </mxCell>
        <mxCell id="bFYyRGVqq3uxC3u2RR_p-95" style="edgeStyle=orthogonalEdgeStyle;rounded=0;orthogonalLoop=1;jettySize=auto;html=1;exitX=0.5;exitY=1;exitDx=0;exitDy=0;entryX=0.5;entryY=0;entryDx=0;entryDy=0;" edge="1" parent="1" source="bFYyRGVqq3uxC3u2RR_p-44" target="bFYyRGVqq3uxC3u2RR_p-63">
          <mxGeometry relative="1" as="geometry" />
        </mxCell>
        <mxCell id="bFYyRGVqq3uxC3u2RR_p-44" value="value = 10" style="rhombus;whiteSpace=wrap;html=1;" vertex="1" parent="1">
          <mxGeometry x="1060" y="510" width="80" height="80" as="geometry" />
        </mxCell>
        <mxCell id="bFYyRGVqq3uxC3u2RR_p-81" style="edgeStyle=orthogonalEdgeStyle;rounded=0;orthogonalLoop=1;jettySize=auto;html=1;exitX=1;exitY=0.5;exitDx=0;exitDy=0;entryX=1;entryY=0.5;entryDx=0;entryDy=0;" edge="1" parent="1" source="bFYyRGVqq3uxC3u2RR_p-45" target="bFYyRGVqq3uxC3u2RR_p-49">
          <mxGeometry relative="1" as="geometry" />
        </mxCell>
        <mxCell id="bFYyRGVqq3uxC3u2RR_p-96" style="edgeStyle=orthogonalEdgeStyle;rounded=0;orthogonalLoop=1;jettySize=auto;html=1;exitX=0.5;exitY=1;exitDx=0;exitDy=0;entryX=0.5;entryY=0;entryDx=0;entryDy=0;" edge="1" parent="1" source="bFYyRGVqq3uxC3u2RR_p-45" target="bFYyRGVqq3uxC3u2RR_p-64">
          <mxGeometry relative="1" as="geometry" />
        </mxCell>
        <mxCell id="bFYyRGVqq3uxC3u2RR_p-45" value="value = 11" style="rhombus;whiteSpace=wrap;html=1;" vertex="1" parent="1">
          <mxGeometry x="1170" y="510" width="80" height="80" as="geometry" />
        </mxCell>
        <mxCell id="bFYyRGVqq3uxC3u2RR_p-100" style="edgeStyle=orthogonalEdgeStyle;rounded=0;orthogonalLoop=1;jettySize=auto;html=1;exitX=0.5;exitY=1;exitDx=0;exitDy=0;entryX=0.5;entryY=0;entryDx=0;entryDy=0;" edge="1" parent="1" source="bFYyRGVqq3uxC3u2RR_p-46" target="bFYyRGVqq3uxC3u2RR_p-65">
          <mxGeometry relative="1" as="geometry" />
        </mxCell>
        <mxCell id="bFYyRGVqq3uxC3u2RR_p-46" value="value = 12" style="rhombus;whiteSpace=wrap;html=1;" vertex="1" parent="1">
          <mxGeometry x="840" y="680" width="80" height="80" as="geometry" />
        </mxCell>
        <mxCell id="bFYyRGVqq3uxC3u2RR_p-84" style="edgeStyle=orthogonalEdgeStyle;rounded=0;orthogonalLoop=1;jettySize=auto;html=1;exitX=0;exitY=0.5;exitDx=0;exitDy=0;entryX=1;entryY=0.5;entryDx=0;entryDy=0;" edge="1" parent="1" source="bFYyRGVqq3uxC3u2RR_p-47" target="bFYyRGVqq3uxC3u2RR_p-46">
          <mxGeometry relative="1" as="geometry" />
        </mxCell>
        <mxCell id="bFYyRGVqq3uxC3u2RR_p-99" style="edgeStyle=orthogonalEdgeStyle;rounded=0;orthogonalLoop=1;jettySize=auto;html=1;exitX=0.5;exitY=1;exitDx=0;exitDy=0;entryX=0.5;entryY=0;entryDx=0;entryDy=0;" edge="1" parent="1" source="bFYyRGVqq3uxC3u2RR_p-47" target="bFYyRGVqq3uxC3u2RR_p-66">
          <mxGeometry relative="1" as="geometry" />
        </mxCell>
        <mxCell id="bFYyRGVqq3uxC3u2RR_p-47" value="value = 13" style="rhombus;whiteSpace=wrap;html=1;" vertex="1" parent="1">
          <mxGeometry x="950" y="680" width="80" height="80" as="geometry" />
        </mxCell>
        <mxCell id="bFYyRGVqq3uxC3u2RR_p-83" style="edgeStyle=orthogonalEdgeStyle;rounded=0;orthogonalLoop=1;jettySize=auto;html=1;exitX=0;exitY=0.5;exitDx=0;exitDy=0;entryX=1;entryY=0.5;entryDx=0;entryDy=0;" edge="1" parent="1" source="bFYyRGVqq3uxC3u2RR_p-48" target="bFYyRGVqq3uxC3u2RR_p-47">
          <mxGeometry relative="1" as="geometry" />
        </mxCell>
        <mxCell id="bFYyRGVqq3uxC3u2RR_p-98" style="edgeStyle=orthogonalEdgeStyle;rounded=0;orthogonalLoop=1;jettySize=auto;html=1;exitX=0.5;exitY=1;exitDx=0;exitDy=0;entryX=0.5;entryY=0;entryDx=0;entryDy=0;" edge="1" parent="1" source="bFYyRGVqq3uxC3u2RR_p-48" target="bFYyRGVqq3uxC3u2RR_p-67">
          <mxGeometry relative="1" as="geometry" />
        </mxCell>
        <mxCell id="bFYyRGVqq3uxC3u2RR_p-48" value="value =14" style="rhombus;whiteSpace=wrap;html=1;" vertex="1" parent="1">
          <mxGeometry x="1060" y="680" width="80" height="80" as="geometry" />
        </mxCell>
        <mxCell id="bFYyRGVqq3uxC3u2RR_p-82" style="edgeStyle=orthogonalEdgeStyle;rounded=0;orthogonalLoop=1;jettySize=auto;html=1;exitX=0;exitY=0.5;exitDx=0;exitDy=0;entryX=1;entryY=0.5;entryDx=0;entryDy=0;" edge="1" parent="1" source="bFYyRGVqq3uxC3u2RR_p-49" target="bFYyRGVqq3uxC3u2RR_p-48">
          <mxGeometry relative="1" as="geometry" />
        </mxCell>
        <mxCell id="bFYyRGVqq3uxC3u2RR_p-97" style="edgeStyle=orthogonalEdgeStyle;rounded=0;orthogonalLoop=1;jettySize=auto;html=1;exitX=0.5;exitY=1;exitDx=0;exitDy=0;entryX=0.5;entryY=0;entryDx=0;entryDy=0;" edge="1" parent="1" source="bFYyRGVqq3uxC3u2RR_p-49" target="bFYyRGVqq3uxC3u2RR_p-68">
          <mxGeometry relative="1" as="geometry" />
        </mxCell>
        <mxCell id="bFYyRGVqq3uxC3u2RR_p-49" value="value = 15" style="rhombus;whiteSpace=wrap;html=1;" vertex="1" parent="1">
          <mxGeometry x="1170" y="680" width="80" height="80" as="geometry" />
        </mxCell>
        <mxCell id="bFYyRGVqq3uxC3u2RR_p-52" value="Draw Case 0" style="rounded=0;whiteSpace=wrap;html=1;" vertex="1" parent="1">
          <mxGeometry x="835" y="260" width="90" height="30" as="geometry" />
        </mxCell>
        <mxCell id="bFYyRGVqq3uxC3u2RR_p-54" value="Draw Case 1" style="rounded=0;whiteSpace=wrap;html=1;" vertex="1" parent="1">
          <mxGeometry x="945" y="260" width="90" height="30" as="geometry" />
        </mxCell>
        <mxCell id="bFYyRGVqq3uxC3u2RR_p-55" value="Draw Case 2" style="rounded=0;whiteSpace=wrap;html=1;" vertex="1" parent="1">
          <mxGeometry x="1055" y="260" width="90" height="30" as="geometry" />
        </mxCell>
        <mxCell id="bFYyRGVqq3uxC3u2RR_p-56" value="Draw Case 3" style="rounded=0;whiteSpace=wrap;html=1;" vertex="1" parent="1">
          <mxGeometry x="1165" y="260" width="90" height="30" as="geometry" />
        </mxCell>
        <mxCell id="bFYyRGVqq3uxC3u2RR_p-57" value="Draw Case 4" style="rounded=0;whiteSpace=wrap;html=1;" vertex="1" parent="1">
          <mxGeometry x="835" y="440" width="90" height="30" as="geometry" />
        </mxCell>
        <mxCell id="bFYyRGVqq3uxC3u2RR_p-58" value="Draw Case 5" style="rounded=0;whiteSpace=wrap;html=1;" vertex="1" parent="1">
          <mxGeometry x="945" y="440" width="90" height="30" as="geometry" />
        </mxCell>
        <mxCell id="bFYyRGVqq3uxC3u2RR_p-59" value="Draw Case 6" style="rounded=0;whiteSpace=wrap;html=1;" vertex="1" parent="1">
          <mxGeometry x="1055" y="440" width="90" height="30" as="geometry" />
        </mxCell>
        <mxCell id="bFYyRGVqq3uxC3u2RR_p-60" value="Draw Case 7" style="rounded=0;whiteSpace=wrap;html=1;" vertex="1" parent="1">
          <mxGeometry x="1165" y="440" width="90" height="30" as="geometry" />
        </mxCell>
        <mxCell id="bFYyRGVqq3uxC3u2RR_p-61" value="Draw Case 8" style="rounded=0;whiteSpace=wrap;html=1;" vertex="1" parent="1">
          <mxGeometry x="835" y="620" width="90" height="30" as="geometry" />
        </mxCell>
        <mxCell id="bFYyRGVqq3uxC3u2RR_p-62" value="Draw Case 9" style="rounded=0;whiteSpace=wrap;html=1;" vertex="1" parent="1">
          <mxGeometry x="945" y="620" width="90" height="30" as="geometry" />
        </mxCell>
        <mxCell id="bFYyRGVqq3uxC3u2RR_p-63" value="Draw Case 10" style="rounded=0;whiteSpace=wrap;html=1;" vertex="1" parent="1">
          <mxGeometry x="1055" y="620" width="90" height="30" as="geometry" />
        </mxCell>
        <mxCell id="bFYyRGVqq3uxC3u2RR_p-64" value="Draw Case 11" style="rounded=0;whiteSpace=wrap;html=1;" vertex="1" parent="1">
          <mxGeometry x="1165" y="620" width="90" height="30" as="geometry" />
        </mxCell>
        <mxCell id="bFYyRGVqq3uxC3u2RR_p-65" value="Draw Case 12" style="rounded=0;whiteSpace=wrap;html=1;" vertex="1" parent="1">
          <mxGeometry x="835" y="790" width="90" height="30" as="geometry" />
        </mxCell>
        <mxCell id="bFYyRGVqq3uxC3u2RR_p-66" value="Draw Case 13" style="rounded=0;whiteSpace=wrap;html=1;" vertex="1" parent="1">
          <mxGeometry x="945" y="790" width="90" height="30" as="geometry" />
        </mxCell>
        <mxCell id="bFYyRGVqq3uxC3u2RR_p-67" value="Draw Case 14" style="rounded=0;whiteSpace=wrap;html=1;" vertex="1" parent="1">
          <mxGeometry x="1055" y="790" width="90" height="30" as="geometry" />
        </mxCell>
        <mxCell id="bFYyRGVqq3uxC3u2RR_p-68" value="Draw Case 15" style="rounded=0;whiteSpace=wrap;html=1;" vertex="1" parent="1">
          <mxGeometry x="1165" y="790" width="90" height="30" as="geometry" />
        </mxCell>
      </root>
    </mxGraphModel>
  </diagram>
</mxfile>
